<svg xmlns="http://www.w3.org/2000/svg" viewBox="0 0 100 100" role="img" aria-label="Claude">
  <title>Claude</title>
  <g fill="#D97757">
    <path d="M55.00,55.20 L96.00,51.50 L96.00,48.50 L55.00,44.80 Z"/>
    <path d="M51.61,57.03 L74.94,66.74 L76.49,64.17 L56.96,48.12 Z"/>
    <path d="M47.76,56.86 L69.33,89.55 L71.98,88.15 L56.94,51.97 Z"/>
    <path d="M44.80,55.00 L48.50,76.00 L51.50,76.00 L55.20,55.00 Z"/>
    <path d="M42.97,51.61 L25.54,87.80 L28.11,89.35 L51.88,56.96 Z"/>
    <path d="M43.14,47.76 L21.92,63.23 L23.33,65.88 L48.03,56.94 Z"/>
    <path d="M45.00,44.80 L4.00,48.50 L4.00,51.50 L45.00,55.20 Z"/>
    <path d="M48.39,42.97 L25.06,33.26 L23.51,35.83 L43.04,51.88 Z"/>
    <path d="M52.24,43.14 L30.67,10.45 L28.02,11.85 L43.06,48.03 Z"/>
    <path d="M55.20,45.00 L51.50,24.00 L48.50,24.00 L44.80,45.00 Z"/>
    <path d="M57.03,48.39 L74.46,12.20 L71.89,10.65 L48.12,43.04 Z"/>
    <path d="M56.86,52.24 L78.08,36.77 L76.67,34.12 L51.97,43.06 Z"/>
  </g>
</svg>
